<svg width="643" height="142" viewBox="0 0 643 142" fill="none" xmlns="http://www.w3.org/2000/svg">
<g clip-path="url(#clip0)">
<path d="M225.581 22.4H250.541L251.021 32.384H250.157C248.973 28.928 247.597 26.576 246.029 25.328C244.493 24.08 242.189 23.456 239.117 23.456H237.773V39.056H239.933C241.469 39.056 242.749 38.496 243.773 37.376C244.797 36.256 245.501 34.72 245.885 32.768H246.605V46.976H245.789C245.277 44.576 244.557 42.864 243.629 41.84C242.733 40.816 241.501 40.304 239.933 40.304H237.773V54.944H243.725V56H225.581V54.944H228.413V23.456H225.581V22.4ZM263.893 56.48C259.765 56.48 256.661 55.424 254.581 53.312C252.533 51.168 251.509 48.208 251.509 44.432C251.509 40.624 252.661 37.712 254.965 35.696C257.301 33.68 260.261 32.672 263.845 32.672C271.109 32.672 274.597 36.32 274.309 43.616H260.773V45.488C260.773 48.624 261.173 50.992 261.973 52.592C262.773 54.192 264.165 54.992 266.149 54.992C269.861 54.992 272.293 53.008 273.445 49.04L274.309 49.184C273.701 51.488 272.597 53.28 270.997 54.56C269.429 55.84 267.061 56.48 263.893 56.48ZM260.821 42.656H265.765V40.304C265.765 37.712 265.605 35.952 265.285 35.024C264.997 34.064 264.389 33.584 263.461 33.584C262.565 33.584 261.893 34.096 261.445 35.12C261.029 36.112 260.821 37.84 260.821 40.304V42.656ZM287.739 44.72H289.131V41.024C289.131 37.984 288.955 35.952 288.603 34.928C288.283 33.872 287.643 33.344 286.683 33.344C286.107 33.344 285.579 33.504 285.099 33.824C284.651 34.112 284.427 34.528 284.427 35.072C284.427 35.584 284.523 36.112 284.715 36.656H285.915C286.171 37.328 286.299 38.144 286.299 39.104C286.299 40.032 285.899 40.848 285.099 41.552C284.299 42.224 283.291 42.56 282.075 42.56C279.323 42.56 277.947 41.232 277.947 38.576C277.947 34.64 281.291 32.672 287.979 32.672C291.787 32.672 294.411 33.328 295.851 34.64C297.323 35.92 298.059 38.288 298.059 41.744V51.488C298.059 53.152 298.523 53.984 299.451 53.984C300.539 53.984 301.179 52.336 301.371 49.04L302.091 49.088C301.963 51.904 301.435 53.84 300.507 54.896C299.579 55.952 298.059 56.48 295.947 56.48C292.107 56.48 289.899 55.296 289.323 52.928C288.907 54.144 288.283 55.04 287.451 55.616C286.619 56.192 285.403 56.48 283.803 56.48C279.067 56.48 276.699 54.544 276.699 50.672C276.699 48.4 277.595 46.848 279.387 46.016C281.211 45.152 283.995 44.72 287.739 44.72ZM285.819 50.624C285.819 52.288 285.899 53.36 286.059 53.84C286.251 54.32 286.587 54.56 287.067 54.56C287.579 54.56 288.043 54.16 288.459 53.36C288.907 52.528 289.131 51.392 289.131 49.952V45.488H288.795C286.811 45.488 285.819 46.944 285.819 49.856V50.624ZM304.46 49.136V34.016H301.82V33.152H304.46V26.96L313.388 24.752V33.152H319.628V34.016H313.388V50.192C313.388 51.696 313.532 52.8 313.82 53.504C314.14 54.208 314.78 54.56 315.74 54.56C316.7 54.56 317.532 54.08 318.236 53.12C318.972 52.16 319.452 50.848 319.676 49.184L320.492 49.28C320.236 51.488 319.532 53.248 318.38 54.56C317.228 55.84 315.324 56.48 312.668 56.48C310.012 56.48 307.98 55.952 306.572 54.896C305.164 53.84 304.46 51.92 304.46 49.136ZM348.996 56H338.052L337.524 52.496C337.012 53.776 336.244 54.768 335.22 55.472C334.228 56.144 332.74 56.48 330.756 56.48C325.796 56.48 323.316 53.808 323.316 48.464V34.016H320.628V33.152H332.244V49.616C332.244 51.536 332.372 52.8 332.628 53.408C332.916 54.016 333.46 54.32 334.26 54.32C335.092 54.32 335.828 53.824 336.468 52.832C337.108 51.84 337.428 50.464 337.428 48.704V34.016H335.22V33.152H346.356V55.136H348.996V56ZM366.21 34.496C365.026 34.496 363.986 35.264 363.09 36.8C362.194 38.336 361.746 40.16 361.746 42.272V55.136H365.154V56H350.178V55.136H352.818V34.016H350.178V33.152H361.746V37.76C362.162 36.128 362.962 34.88 364.146 34.016C365.33 33.12 366.674 32.672 368.178 32.672C369.682 32.672 370.898 33.104 371.826 33.968C372.786 34.8 373.266 36 373.266 37.568C373.266 39.104 372.914 40.288 372.21 41.12C371.506 41.952 370.418 42.368 368.946 42.368C367.506 42.368 366.434 41.888 365.73 40.928C365.058 39.968 364.978 38.64 365.49 36.944H367.218C368.018 35.312 367.682 34.496 366.21 34.496ZM386.534 56.48C382.406 56.48 379.302 55.424 377.222 53.312C375.174 51.168 374.15 48.208 374.15 44.432C374.15 40.624 375.302 37.712 377.606 35.696C379.942 33.68 382.902 32.672 386.486 32.672C393.75 32.672 397.238 36.32 396.95 43.616H383.414V45.488C383.414 48.624 383.814 50.992 384.614 52.592C385.414 54.192 386.806 54.992 388.79 54.992C392.502 54.992 394.934 53.008 396.086 49.04L396.95 49.184C396.342 51.488 395.238 53.28 393.638 54.56C392.07 55.84 389.702 56.48 386.534 56.48ZM383.462 42.656H388.406V40.304C388.406 37.712 388.246 35.952 387.926 35.024C387.638 34.064 387.03 33.584 386.102 33.584C385.206 33.584 384.534 34.096 384.086 35.12C383.67 36.112 383.462 37.84 383.462 40.304V42.656ZM399.495 56.48V47.888H400.071C400.903 50.672 402.023 52.624 403.431 53.744C404.839 54.864 406.599 55.424 408.711 55.424C411.975 55.424 413.607 54.384 413.607 52.304C413.607 51.408 413.207 50.736 412.407 50.288C411.159 49.584 409.559 49.04 407.607 48.656C405.431 48.08 403.607 47.312 402.135 46.352C400.375 45.2 399.495 43.376 399.495 40.88C399.495 38.384 400.263 36.4 401.799 34.928C403.335 33.424 405.383 32.672 407.943 32.672C409.511 32.672 411.127 33.04 412.791 33.776C413.399 34.032 413.863 34.16 414.183 34.16C414.503 34.16 414.775 34.048 414.999 33.824C415.223 33.6 415.495 33.184 415.815 32.576H416.343V39.92H415.767C414.135 35.76 411.607 33.68 408.183 33.68C406.679 33.68 405.559 33.952 404.823 34.496C404.087 35.008 403.719 35.664 403.719 36.464C403.719 36.944 403.831 37.328 404.055 37.616C404.279 37.872 404.455 38.064 404.583 38.192C404.711 38.32 404.919 38.464 405.207 38.624C405.495 38.752 405.735 38.864 405.927 38.96C406.119 39.024 406.407 39.12 406.791 39.248C407.207 39.376 407.511 39.456 407.703 39.488C409.879 40.032 411.447 40.512 412.407 40.928C413.367 41.312 414.279 41.792 415.143 42.368C416.903 43.584 417.783 45.552 417.783 48.272C417.783 50.96 416.983 53.008 415.383 54.416C413.783 55.792 411.591 56.48 408.807 56.48C406.823 56.48 404.903 56.016 403.047 55.088C402.663 54.832 402.359 54.704 402.135 54.704C401.431 54.704 400.743 55.296 400.071 56.48H399.495Z" fill="white"/>
<path d="M11.4771 103.4H26.0371L26.3171 108.944H25.8131C25.0291 107.059 24.2077 105.771 23.3491 105.08C22.4904 104.371 21.2304 104.016 19.5691 104.016H18.5891V112.668H19.5411C20.4184 112.668 21.1557 112.341 21.7531 111.688C22.3504 111.016 22.7704 110.12 23.0131 109H23.4331V117.288H22.9571C22.6211 115.888 22.1637 114.889 21.5851 114.292C21.0251 113.695 20.2504 113.396 19.2611 113.396H18.5891V122.384H19.6531C21.3704 122.384 22.8264 121.871 24.0211 120.844C25.2344 119.817 26.0651 118.501 26.5131 116.896H27.0731L26.8491 123H11.4771V122.384H13.1291V104.016H11.4771V103.4ZM28.7297 102H35.5897V122.496H37.1577V123H28.8417V122.496H30.3817V102.504H28.7297V102ZM43.1323 109.672H49.8803V112.248C50.4963 110.344 51.8497 109.392 53.9403 109.392C56.0497 109.392 57.3283 110.4 57.7763 112.416C58.4297 110.4 59.8017 109.392 61.8923 109.392C64.6363 109.392 66.0083 110.951 66.0083 114.068V122.496H67.5763V123H59.8203V122.496H60.8003V113.396C60.8003 111.977 60.679 111.147 60.4363 110.904C60.3243 110.792 60.175 110.736 59.9883 110.736C59.447 110.736 58.971 111.1 58.5603 111.828C58.1497 112.556 57.9443 113.48 57.9443 114.6V122.496H58.9523V123H51.7563V122.496H52.7363V113.396C52.7363 111.977 52.615 111.147 52.3723 110.904C52.2603 110.792 52.111 110.736 51.9243 110.736C51.4017 110.736 50.9257 111.137 50.4963 111.94C50.0857 112.724 49.8803 113.667 49.8803 114.768V122.496H50.8883V123H43.1323V122.496H44.6723V110.176H43.1323V109.672ZM75.5518 123.28C73.1438 123.28 71.3332 122.664 70.1198 121.432C68.9252 120.181 68.3278 118.455 68.3278 116.252C68.3278 114.031 68.9998 112.332 70.3438 111.156C71.7065 109.98 73.4332 109.392 75.5238 109.392C79.7612 109.392 81.7958 111.52 81.6278 115.776H73.7318V116.868C73.7318 118.697 73.9652 120.079 74.4318 121.012C74.8985 121.945 75.7105 122.412 76.8678 122.412C79.0332 122.412 80.4518 121.255 81.1238 118.94L81.6278 119.024C81.2732 120.368 80.6292 121.413 79.6958 122.16C78.7812 122.907 77.3998 123.28 75.5518 123.28ZM73.7598 115.216H76.6438V113.844C76.6438 112.332 76.5505 111.305 76.3638 110.764C76.1958 110.204 75.8412 109.924 75.2998 109.924C74.7772 109.924 74.3852 110.223 74.1238 110.82C73.8812 111.399 73.7598 112.407 73.7598 113.844V115.216ZM89.5733 109.672V120.592C89.5733 123.653 89.0413 125.987 87.9773 127.592C86.932 129.197 85.2147 130 82.8253 130C81.276 130 80.1467 129.692 79.4373 129.076C78.7093 128.46 78.3453 127.741 78.3453 126.92C78.3453 126.099 78.588 125.464 79.0733 125.016C79.5587 124.587 80.1653 124.372 80.8933 124.372C81.6213 124.372 82.172 124.568 82.5453 124.96C82.9 125.371 83.0773 125.819 83.0773 126.304C83.0773 126.789 83.0213 127.256 82.9093 127.704H81.8453C81.5467 128.208 81.5093 128.637 81.7333 128.992C81.9387 129.347 82.3213 129.524 82.8813 129.524C83.46 129.524 83.852 129.197 84.0573 128.544C84.2627 127.909 84.3653 126.584 84.3653 124.568V110.176H82.5453V109.672H89.5733ZM86.9133 107.74C85.924 107.74 85.2147 107.488 84.7853 106.984C84.3747 106.48 84.1693 105.855 84.1693 105.108C84.1693 104.361 84.3933 103.745 84.8413 103.26C85.308 102.775 86.008 102.532 86.9413 102.532C87.8747 102.532 88.584 102.756 89.0693 103.204C89.5547 103.633 89.7973 104.259 89.7973 105.08C89.7973 105.883 89.564 106.527 89.0973 107.012C88.6307 107.497 87.9027 107.74 86.9133 107.74ZM100.765 117.484V115.104C100.765 113.293 100.662 111.977 100.457 111.156C100.27 110.316 99.822 109.896 99.1126 109.896C98.702 109.896 98.366 110.017 98.1046 110.26C97.862 110.484 97.6846 110.867 97.5726 111.408C97.4046 112.248 97.3206 113.527 97.3206 115.244V117.428C97.3206 119.463 97.3766 120.685 97.4886 121.096C97.6193 121.507 97.75 121.843 97.8806 122.104C98.086 122.552 98.4873 122.776 99.0846 122.776C99.8126 122.776 100.289 122.356 100.513 121.516C100.681 120.919 100.765 119.575 100.765 117.484ZM99.0286 123.28C96.6953 123.28 94.9313 122.683 93.7366 121.488C92.542 120.293 91.9446 118.585 91.9446 116.364C91.9446 114.124 92.5793 112.407 93.8486 111.212C95.1366 109.999 96.938 109.392 99.2526 109.392C101.567 109.392 103.294 109.952 104.433 111.072C105.571 112.173 106.141 113.863 106.141 116.14C106.141 120.9 103.77 123.28 99.0286 123.28ZM116.476 110.456C115.785 110.456 115.178 110.904 114.656 111.8C114.133 112.696 113.872 113.76 113.872 114.992V122.496H115.86V123H107.124V122.496H108.664V110.176H107.124V109.672H113.872V112.36C114.114 111.408 114.581 110.68 115.272 110.176C115.962 109.653 116.746 109.392 117.624 109.392C118.501 109.392 119.21 109.644 119.752 110.148C120.312 110.633 120.592 111.333 120.592 112.248C120.592 113.144 120.386 113.835 119.976 114.32C119.565 114.805 118.93 115.048 118.072 115.048C117.232 115.048 116.606 114.768 116.196 114.208C115.804 113.648 115.757 112.873 116.056 111.884H117.064C117.53 110.932 117.334 110.456 116.476 110.456ZM127.062 123.28V118.268H127.398C127.884 119.892 128.537 121.031 129.358 121.684C130.18 122.337 131.206 122.664 132.438 122.664C134.342 122.664 135.294 122.057 135.294 120.844C135.294 120.321 135.061 119.929 134.594 119.668C133.866 119.257 132.933 118.94 131.794 118.716C130.525 118.38 129.461 117.932 128.602 117.372C127.576 116.7 127.062 115.636 127.062 114.18C127.062 112.724 127.51 111.567 128.406 110.708C129.302 109.831 130.497 109.392 131.99 109.392C132.905 109.392 133.848 109.607 134.818 110.036C135.173 110.185 135.444 110.26 135.63 110.26C135.817 110.26 135.976 110.195 136.106 110.064C136.237 109.933 136.396 109.691 136.582 109.336H136.89V113.62H136.554C135.602 111.193 134.128 109.98 132.13 109.98C131.253 109.98 130.6 110.139 130.17 110.456C129.741 110.755 129.526 111.137 129.526 111.604C129.526 111.884 129.592 112.108 129.722 112.276C129.853 112.425 129.956 112.537 130.03 112.612C130.105 112.687 130.226 112.771 130.394 112.864C130.562 112.939 130.702 113.004 130.814 113.06C130.926 113.097 131.094 113.153 131.318 113.228C131.561 113.303 131.738 113.349 131.85 113.368C133.12 113.685 134.034 113.965 134.594 114.208C135.154 114.432 135.686 114.712 136.19 115.048C137.217 115.757 137.73 116.905 137.73 118.492C137.73 120.06 137.264 121.255 136.33 122.076C135.397 122.879 134.118 123.28 132.494 123.28C131.337 123.28 130.217 123.009 129.134 122.468C128.91 122.319 128.733 122.244 128.602 122.244C128.192 122.244 127.79 122.589 127.398 123.28H127.062ZM147.803 117.484V115.104C147.803 113.293 147.7 111.977 147.495 111.156C147.308 110.316 146.86 109.896 146.151 109.896C145.74 109.896 145.404 110.017 145.143 110.26C144.9 110.484 144.723 110.867 144.611 111.408C144.443 112.248 144.359 113.527 144.359 115.244V117.428C144.359 119.463 144.415 120.685 144.527 121.096C144.658 121.507 144.788 121.843 144.919 122.104C145.124 122.552 145.526 122.776 146.123 122.776C146.851 122.776 147.327 122.356 147.551 121.516C147.719 120.919 147.803 119.575 147.803 117.484ZM146.067 123.28C143.734 123.28 141.97 122.683 140.775 121.488C139.58 120.293 138.983 118.585 138.983 116.364C138.983 114.124 139.618 112.407 140.887 111.212C142.175 109.999 143.976 109.392 146.291 109.392C148.606 109.392 150.332 109.952 151.471 111.072C152.61 112.173 153.179 113.863 153.179 116.14C153.179 120.9 150.808 123.28 146.067 123.28ZM161.05 103.904C161.311 103.344 161.349 102.877 161.162 102.504C160.994 102.112 160.63 101.916 160.07 101.916C159.529 101.916 159.09 102.065 158.754 102.364C158.437 102.663 158.278 103.083 158.278 103.624C158.278 104.147 158.409 104.669 158.67 105.192L160.91 109.672H164.326V110.176H160.91V122.496H163.934V123H154.162V122.496H155.702V110.176H154.078V109.672H155.702V108.356C155.702 106.303 156.122 104.623 156.962 103.316C157.802 102.009 159.043 101.356 160.686 101.356C161.937 101.356 162.879 101.664 163.514 102.28C164.167 102.896 164.494 103.615 164.494 104.436C164.494 105.239 164.279 105.845 163.85 106.256C163.421 106.648 162.851 106.844 162.142 106.844C161.451 106.844 160.91 106.639 160.518 106.228C160.145 105.817 159.958 105.295 159.958 104.66C159.958 104.399 159.967 104.203 159.986 104.072L161.05 103.904ZM166.098 118.996V110.176H164.558V109.672H166.098V106.06L171.306 104.772V109.672H174.946V110.176H171.306V119.612C171.306 120.489 171.39 121.133 171.558 121.544C171.745 121.955 172.118 122.16 172.678 122.16C173.238 122.16 173.723 121.88 174.134 121.32C174.563 120.76 174.843 119.995 174.974 119.024L175.45 119.08C175.301 120.368 174.89 121.395 174.218 122.16C173.546 122.907 172.435 123.28 170.886 123.28C169.337 123.28 168.151 122.972 167.33 122.356C166.509 121.74 166.098 120.62 166.098 118.996ZM185.22 110.176V109.672H192.444V110.176H191.296L193.816 119.612L196.308 110.176H194.376V109.672H198.156V110.176H196.98L193.62 123H189.784L187.348 114.404L184.716 123H180.964L176.82 110.176H175.56V109.672H184.044V110.176H182.364L184.94 119.696L186.956 113.144L186.256 110.176H185.22ZM204.713 116.42H205.525V114.264C205.525 112.491 205.422 111.305 205.217 110.708C205.03 110.092 204.657 109.784 204.097 109.784C203.761 109.784 203.453 109.877 203.173 110.064C202.911 110.232 202.781 110.475 202.781 110.792C202.781 111.091 202.837 111.399 202.949 111.716H203.649C203.798 112.108 203.873 112.584 203.873 113.144C203.873 113.685 203.639 114.161 203.173 114.572C202.706 114.964 202.118 115.16 201.409 115.16C199.803 115.16 199.001 114.385 199.001 112.836C199.001 110.54 200.951 109.392 204.853 109.392C207.074 109.392 208.605 109.775 209.445 110.54C210.303 111.287 210.733 112.668 210.733 114.684V120.368C210.733 121.339 211.003 121.824 211.545 121.824C212.179 121.824 212.553 120.863 212.665 118.94L213.085 118.968C213.01 120.611 212.702 121.74 212.161 122.356C211.619 122.972 210.733 123.28 209.501 123.28C207.261 123.28 205.973 122.589 205.637 121.208C205.394 121.917 205.03 122.44 204.545 122.776C204.059 123.112 203.35 123.28 202.417 123.28C199.654 123.28 198.273 122.151 198.273 119.892C198.273 118.567 198.795 117.661 199.841 117.176C200.905 116.672 202.529 116.42 204.713 116.42ZM203.593 119.864C203.593 120.835 203.639 121.46 203.733 121.74C203.845 122.02 204.041 122.16 204.321 122.16C204.619 122.16 204.89 121.927 205.133 121.46C205.394 120.975 205.525 120.312 205.525 119.472V116.868H205.329C204.171 116.868 203.593 117.717 203.593 119.416V119.864ZM222.912 110.456C222.221 110.456 221.614 110.904 221.092 111.8C220.569 112.696 220.308 113.76 220.308 114.992V122.496H222.296V123H213.56V122.496H215.1V110.176H213.56V109.672H220.308V112.36C220.55 111.408 221.017 110.68 221.708 110.176C222.398 109.653 223.182 109.392 224.06 109.392C224.937 109.392 225.646 109.644 226.188 110.148C226.748 110.633 227.028 111.333 227.028 112.248C227.028 113.144 226.822 113.835 226.412 114.32C226.001 114.805 225.366 115.048 224.508 115.048C223.668 115.048 223.042 114.768 222.632 114.208C222.24 113.648 222.193 112.873 222.492 111.884H223.5C223.966 110.932 223.77 110.456 222.912 110.456ZM234.85 123.28C232.442 123.28 230.632 122.664 229.418 121.432C228.224 120.181 227.626 118.455 227.626 116.252C227.626 114.031 228.298 112.332 229.642 111.156C231.005 109.98 232.732 109.392 234.822 109.392C239.06 109.392 241.094 111.52 240.926 115.776H233.03V116.868C233.03 118.697 233.264 120.079 233.73 121.012C234.197 121.945 235.009 122.412 236.166 122.412C238.332 122.412 239.75 121.255 240.422 118.94L240.926 119.024C240.572 120.368 239.928 121.413 238.994 122.16C238.08 122.907 236.698 123.28 234.85 123.28ZM233.058 115.216H235.942V113.844C235.942 112.332 235.849 111.305 235.662 110.764C235.494 110.204 235.14 109.924 234.598 109.924C234.076 109.924 233.684 110.223 233.422 110.82C233.18 111.399 233.058 112.407 233.058 113.844V115.216ZM258.275 103.652C255.382 103.652 253.935 106.443 253.935 112.024V114.236C253.935 116.887 254.318 118.968 255.083 120.48C255.848 121.973 256.978 122.72 258.471 122.72C260.524 122.72 262.41 120.723 264.127 116.728H264.631L264.435 122.972H264.127C264.015 122.767 263.912 122.627 263.819 122.552C263.726 122.459 263.586 122.412 263.399 122.412C263.231 122.412 262.559 122.561 261.383 122.86C260.207 123.14 259.012 123.28 257.799 123.28C254.756 123.28 252.395 122.459 250.715 120.816C249.054 119.173 248.223 116.709 248.223 113.424C248.223 110.12 249.091 107.572 250.827 105.78C252.582 103.988 254.934 103.092 257.883 103.092C259.022 103.092 260.132 103.241 261.215 103.54C262.316 103.82 262.96 103.96 263.147 103.96C263.334 103.96 263.474 103.923 263.567 103.848C263.66 103.755 263.763 103.605 263.875 103.4H264.183L264.407 109.476H263.903C263.063 107.591 262.195 106.153 261.299 105.164C260.422 104.156 259.414 103.652 258.275 103.652ZM275.791 113.088H274.307V122.468H276.127V123H267.027V122.468H268.847V103.932H267.027V103.4H275.483C277.91 103.4 279.627 103.531 280.635 103.792C281.662 104.035 282.38 104.333 282.791 104.688C283.687 105.416 284.135 106.573 284.135 108.16C284.135 109.747 283.743 110.885 282.959 111.576C282.175 112.248 280.98 112.649 279.375 112.78V112.864C280.887 113.069 281.942 113.517 282.539 114.208C283.136 114.899 283.435 116.056 283.435 117.68V119.164C283.435 120.135 283.482 120.788 283.575 121.124C283.687 121.46 283.911 121.628 284.247 121.628C284.583 121.628 284.844 121.479 285.031 121.18C285.236 120.863 285.423 120.209 285.591 119.22L286.067 119.276C285.862 120.863 285.498 121.927 284.975 122.468C284.471 123.009 283.454 123.28 281.923 123.28C280.392 123.28 279.3 122.925 278.647 122.216C278.012 121.488 277.695 120.135 277.695 118.156V116.112C277.695 115.067 277.555 114.301 277.275 113.816C277.014 113.331 276.519 113.088 275.791 113.088ZM274.307 103.932V112.556H275.203C276.267 112.556 277.051 112.229 277.555 111.576C278.078 110.923 278.339 109.859 278.339 108.384V107.572C278.339 106.097 278.087 105.127 277.583 104.66C277.098 104.175 276.314 103.932 275.231 103.932H274.307ZM302.194 103.4H309.67V103.932H308.13V122.468H309.67V123H301.13V122.468H302.67V104.968H302.558L298.358 123H294.858L289.93 104.884H289.818V122.468H291.358V123H287.55V122.468H289.09V103.932H287.55V103.4H295.11L298.834 117.82L302.194 103.4ZM331.528 115.468C331.528 113.545 331.435 112.257 331.248 111.604C331.061 110.932 330.697 110.596 330.156 110.596C329.615 110.596 329.129 110.951 328.7 111.66C328.271 112.351 328.056 113.284 328.056 114.46V119.584C328.056 120.387 328.215 121.068 328.532 121.628C328.849 122.188 329.316 122.468 329.932 122.468C330.548 122.468 330.968 122.057 331.192 121.236C331.416 120.415 331.528 118.977 331.528 116.924V115.468ZM328 109.672V111.884C328.728 110.223 330.016 109.392 331.864 109.392C333.469 109.392 334.711 109.971 335.588 111.128C336.484 112.285 336.932 114.04 336.932 116.392C336.932 118.744 336.447 120.48 335.476 121.6C334.524 122.72 333.087 123.28 331.164 123.28C330.268 123.28 329.596 123.168 329.148 122.944C328.7 122.72 328.336 122.375 328.056 121.908V129.16H331.668V129.664H321.308V129.16H322.848V110.176H321.364V109.672H328ZM344.689 116.42H345.501V114.264C345.501 112.491 345.398 111.305 345.193 110.708C345.006 110.092 344.633 109.784 344.073 109.784C343.737 109.784 343.429 109.877 343.149 110.064C342.888 110.232 342.757 110.475 342.757 110.792C342.757 111.091 342.813 111.399 342.925 111.716H343.625C343.774 112.108 343.849 112.584 343.849 113.144C343.849 113.685 343.616 114.161 343.149 114.572C342.682 114.964 342.094 115.16 341.385 115.16C339.78 115.16 338.977 114.385 338.977 112.836C338.977 110.54 340.928 109.392 344.829 109.392C347.05 109.392 348.581 109.775 349.421 110.54C350.28 111.287 350.709 112.668 350.709 114.684V120.368C350.709 121.339 350.98 121.824 351.521 121.824C352.156 121.824 352.529 120.863 352.641 118.94L353.061 118.968C352.986 120.611 352.678 121.74 352.137 122.356C351.596 122.972 350.709 123.28 349.477 123.28C347.237 123.28 345.949 122.589 345.613 121.208C345.37 121.917 345.006 122.44 344.521 122.776C344.036 123.112 343.326 123.28 342.393 123.28C339.63 123.28 338.249 122.151 338.249 119.892C338.249 118.567 338.772 117.661 339.817 117.176C340.881 116.672 342.505 116.42 344.689 116.42ZM343.569 119.864C343.569 120.835 343.616 121.46 343.709 121.74C343.821 122.02 344.017 122.16 344.297 122.16C344.596 122.16 344.866 121.927 345.109 121.46C345.37 120.975 345.501 120.312 345.501 119.472V116.868H345.305C344.148 116.868 343.569 117.717 343.569 119.416V119.864ZM362.888 110.456C362.198 110.456 361.591 110.904 361.068 111.8C360.546 112.696 360.284 113.76 360.284 114.992V122.496H362.272V123H353.536V122.496H355.076V110.176H353.536V109.672H360.284V112.36C360.527 111.408 360.994 110.68 361.684 110.176C362.375 109.653 363.159 109.392 364.036 109.392C364.914 109.392 365.623 109.644 366.164 110.148C366.724 110.633 367.004 111.333 367.004 112.248C367.004 113.144 366.799 113.835 366.388 114.32C365.978 114.805 365.343 115.048 364.484 115.048C363.644 115.048 363.019 114.768 362.608 114.208C362.216 113.648 362.17 112.873 362.468 111.884H363.476C363.943 110.932 363.747 110.456 362.888 110.456ZM373.909 116.42H374.721V114.264C374.721 112.491 374.619 111.305 374.413 110.708C374.227 110.092 373.853 109.784 373.293 109.784C372.957 109.784 372.649 109.877 372.369 110.064C372.108 110.232 371.977 110.475 371.977 110.792C371.977 111.091 372.033 111.399 372.145 111.716H372.845C372.995 112.108 373.069 112.584 373.069 113.144C373.069 113.685 372.836 114.161 372.369 114.572C371.903 114.964 371.315 115.16 370.605 115.16C369 115.16 368.197 114.385 368.197 112.836C368.197 110.54 370.148 109.392 374.049 109.392C376.271 109.392 377.801 109.775 378.641 110.54C379.5 111.287 379.929 112.668 379.929 114.684V120.368C379.929 121.339 380.2 121.824 380.741 121.824C381.376 121.824 381.749 120.863 381.861 118.94L382.281 118.968C382.207 120.611 381.899 121.74 381.357 122.356C380.816 122.972 379.929 123.28 378.697 123.28C376.457 123.28 375.169 122.589 374.833 121.208C374.591 121.917 374.227 122.44 373.741 122.776C373.256 123.112 372.547 123.28 371.613 123.28C368.851 123.28 367.469 122.151 367.469 119.892C367.469 118.567 367.992 117.661 369.037 117.176C370.101 116.672 371.725 116.42 373.909 116.42ZM372.789 119.864C372.789 120.835 372.836 121.46 372.929 121.74C373.041 122.02 373.237 122.16 373.517 122.16C373.816 122.16 374.087 121.927 374.329 121.46C374.591 120.975 374.721 120.312 374.721 119.472V116.868H374.525C373.368 116.868 372.789 117.717 372.789 119.416V119.864ZM395.828 109.896C395.006 109.896 394.418 110.344 394.064 111.24C393.709 112.136 393.532 113.62 393.532 115.692V117.148C393.532 118.996 393.737 120.321 394.148 121.124C394.558 121.927 395.314 122.328 396.416 122.328C397.517 122.328 398.394 121.955 399.048 121.208C399.701 120.461 400.121 119.612 400.308 118.66L400.812 118.716C400.457 120.321 399.804 121.479 398.852 122.188C397.881 122.916 396.546 123.28 394.848 123.28C392.682 123.28 391.021 122.701 389.864 121.544C388.706 120.368 388.128 118.66 388.128 116.42C388.128 114.161 388.781 112.425 390.088 111.212C391.413 109.999 393.252 109.392 395.604 109.392C397.265 109.392 398.534 109.719 399.412 110.372C400.289 111.007 400.728 111.809 400.728 112.78C400.728 113.751 400.513 114.46 400.084 114.908C399.673 115.356 399.094 115.58 398.348 115.58C397.62 115.58 397.032 115.384 396.584 114.992C396.136 114.6 395.912 114.021 395.912 113.256C395.912 112.92 395.958 112.584 396.052 112.248H396.976C397.106 111.875 397.172 111.539 397.172 111.24C397.172 110.344 396.724 109.896 395.828 109.896ZM418.103 123H411.719L411.411 120.956C411.112 121.703 410.664 122.281 410.067 122.692C409.488 123.084 408.62 123.28 407.463 123.28C404.57 123.28 403.123 121.721 403.123 118.604V110.176H401.555V109.672H408.331V119.276C408.331 120.396 408.406 121.133 408.555 121.488C408.723 121.843 409.04 122.02 409.507 122.02C409.992 122.02 410.422 121.731 410.795 121.152C411.168 120.573 411.355 119.771 411.355 118.744V110.176H410.067V109.672H416.563V122.496H418.103V123ZM425.596 116.42H426.408V114.264C426.408 112.491 426.305 111.305 426.1 110.708C425.913 110.092 425.54 109.784 424.98 109.784C424.644 109.784 424.336 109.877 424.056 110.064C423.795 110.232 423.664 110.475 423.664 110.792C423.664 111.091 423.72 111.399 423.832 111.716H424.532C424.681 112.108 424.756 112.584 424.756 113.144C424.756 113.685 424.523 114.161 424.056 114.572C423.589 114.964 423.001 115.16 422.292 115.16C420.687 115.16 419.884 114.385 419.884 112.836C419.884 110.54 421.835 109.392 425.736 109.392C427.957 109.392 429.488 109.775 430.328 110.54C431.187 111.287 431.616 112.668 431.616 114.684V120.368C431.616 121.339 431.887 121.824 432.428 121.824C433.063 121.824 433.436 120.863 433.548 118.94L433.968 118.968C433.893 120.611 433.585 121.74 433.044 122.356C432.503 122.972 431.616 123.28 430.384 123.28C428.144 123.28 426.856 122.589 426.52 121.208C426.277 121.917 425.913 122.44 425.428 122.776C424.943 123.112 424.233 123.28 423.3 123.28C420.537 123.28 419.156 122.151 419.156 119.892C419.156 118.567 419.679 117.661 420.724 117.176C421.788 116.672 423.412 116.42 425.596 116.42ZM424.476 119.864C424.476 120.835 424.523 121.46 424.616 121.74C424.728 122.02 424.924 122.16 425.204 122.16C425.503 122.16 425.773 121.927 426.016 121.46C426.277 120.975 426.408 120.312 426.408 119.472V116.868H426.212C425.055 116.868 424.476 117.717 424.476 119.416V119.864ZM434.331 102H441.191V122.496H442.759V123H434.443V122.496H435.983V102.504H434.331V102ZM449.187 117.204C449.187 119.127 449.28 120.424 449.467 121.096C449.653 121.749 450.017 122.076 450.559 122.076C451.1 122.076 451.585 121.74 452.015 121.068C452.444 120.396 452.659 119.472 452.659 118.296V113.088C452.659 112.285 452.491 111.604 452.155 111.044C451.837 110.484 451.389 110.204 450.811 110.204C450.157 110.204 449.719 110.624 449.495 111.464C449.289 112.285 449.187 113.713 449.187 115.748V117.204ZM452.659 129.16V120.872C451.949 122.477 450.736 123.28 449.019 123.28C445.528 123.28 443.783 120.956 443.783 116.308C443.783 113.937 444.259 112.192 445.211 111.072C446.181 109.952 447.628 109.392 449.551 109.392C451.1 109.392 452.192 109.98 452.827 111.156L453.023 109.672H459.407V110.176H457.867V129.16H459.239V129.664H449.803V129.16H452.659ZM476.544 123H470.16L469.852 120.956C469.553 121.703 469.105 122.281 468.508 122.692C467.929 123.084 467.061 123.28 465.904 123.28C463.01 123.28 461.564 121.721 461.564 118.604V110.176H459.996V109.672H466.772V119.276C466.772 120.396 466.846 121.133 466.996 121.488C467.164 121.843 467.481 122.02 467.948 122.02C468.433 122.02 468.862 121.731 469.236 121.152C469.609 120.573 469.796 119.771 469.796 118.744V110.176H468.508V109.672H475.004V122.496H476.544V123ZM481.433 107.74C480.443 107.74 479.734 107.488 479.305 106.984C478.894 106.48 478.689 105.855 478.689 105.108C478.689 104.361 478.913 103.745 479.361 103.26C479.827 102.775 480.527 102.532 481.461 102.532C482.394 102.532 483.103 102.756 483.589 103.204C484.074 103.633 484.317 104.259 484.317 105.08C484.317 105.883 484.083 106.527 483.617 107.012C483.15 107.497 482.422 107.74 481.433 107.74ZM477.205 109.672H484.065V122.496H485.633V123H477.317V122.496H478.857V110.176H477.205V109.672ZM493.767 123.28C491.359 123.28 489.549 122.664 488.335 121.432C487.141 120.181 486.543 118.455 486.543 116.252C486.543 114.031 487.215 112.332 488.559 111.156C489.922 109.98 491.649 109.392 493.739 109.392C497.977 109.392 500.011 111.52 499.843 115.776H491.947V116.868C491.947 118.697 492.181 120.079 492.647 121.012C493.114 121.945 493.926 122.412 495.083 122.412C497.249 122.412 498.667 121.255 499.339 118.94L499.843 119.024C499.489 120.368 498.845 121.413 497.911 122.16C496.997 122.907 495.615 123.28 493.767 123.28ZM491.975 115.216H494.859V113.844C494.859 112.332 494.766 111.305 494.579 110.764C494.411 110.204 494.057 109.924 493.515 109.924C492.993 109.924 492.601 110.223 492.339 110.82C492.097 111.399 491.975 112.407 491.975 113.844V115.216ZM510.393 110.456C509.702 110.456 509.096 110.904 508.573 111.8C508.05 112.696 507.789 113.76 507.789 114.992V122.496H509.777V123H501.041V122.496H502.581V110.176H501.041V109.672H507.789V112.36C508.032 111.408 508.498 110.68 509.189 110.176C509.88 109.653 510.664 109.392 511.541 109.392C512.418 109.392 513.128 109.644 513.669 110.148C514.229 110.633 514.509 111.333 514.509 112.248C514.509 113.144 514.304 113.835 513.893 114.32C513.482 114.805 512.848 115.048 511.989 115.048C511.149 115.048 510.524 114.768 510.113 114.208C509.721 113.648 509.674 112.873 509.973 111.884H510.981C511.448 110.932 511.252 110.456 510.393 110.456ZM527.699 123.28C525.291 123.28 523.481 122.664 522.267 121.432C521.073 120.181 520.475 118.455 520.475 116.252C520.475 114.031 521.147 112.332 522.491 111.156C523.854 109.98 525.581 109.392 527.671 109.392C531.909 109.392 533.943 111.52 533.775 115.776H525.879V116.868C525.879 118.697 526.113 120.079 526.579 121.012C527.046 121.945 527.858 122.412 529.015 122.412C531.181 122.412 532.599 121.255 533.271 118.94L533.775 119.024C533.421 120.368 532.777 121.413 531.843 122.16C530.929 122.907 529.547 123.28 527.699 123.28ZM525.907 115.216H528.791V113.844C528.791 112.332 528.698 111.305 528.511 110.764C528.343 110.204 527.989 109.924 527.447 109.924C526.925 109.924 526.533 110.223 526.271 110.82C526.029 111.399 525.907 112.407 525.907 113.844V115.216ZM534.973 109.672H541.721V112.248C542.337 110.344 543.69 109.392 545.781 109.392C547.89 109.392 549.169 110.4 549.617 112.416C550.27 110.4 551.642 109.392 553.733 109.392C556.477 109.392 557.849 110.951 557.849 114.068V122.496H559.417V123H551.661V122.496H552.641V113.396C552.641 111.977 552.52 111.147 552.277 110.904C552.165 110.792 552.016 110.736 551.829 110.736C551.288 110.736 550.812 111.1 550.401 111.828C549.99 112.556 549.785 113.48 549.785 114.6V122.496H550.793V123H543.597V122.496H544.577V113.396C544.577 111.977 544.456 111.147 544.213 110.904C544.101 110.792 543.952 110.736 543.765 110.736C543.242 110.736 542.766 111.137 542.337 111.94C541.926 112.724 541.721 113.667 541.721 114.768V122.496H542.729V123H534.973V122.496H536.513V110.176H534.973V109.672ZM570.248 115.468C570.248 113.545 570.155 112.257 569.968 111.604C569.782 110.932 569.418 110.596 568.876 110.596C568.335 110.596 567.85 110.951 567.42 111.66C566.991 112.351 566.776 113.284 566.776 114.46V119.584C566.776 120.387 566.935 121.068 567.252 121.628C567.57 122.188 568.036 122.468 568.652 122.468C569.268 122.468 569.688 122.057 569.912 121.236C570.136 120.415 570.248 118.977 570.248 116.924V115.468ZM566.72 109.672V111.884C567.448 110.223 568.736 109.392 570.584 109.392C572.19 109.392 573.431 109.971 574.308 111.128C575.204 112.285 575.652 114.04 575.652 116.392C575.652 118.744 575.167 120.48 574.196 121.6C573.244 122.72 571.807 123.28 569.884 123.28C568.988 123.28 568.316 123.168 567.868 122.944C567.42 122.72 567.056 122.375 566.776 121.908V129.16H570.388V129.664H560.028V129.16H561.568V110.176H560.084V109.672H566.72ZM586.041 110.456C585.351 110.456 584.744 110.904 584.221 111.8C583.699 112.696 583.437 113.76 583.437 114.992V122.496H585.425V123H576.689V122.496H578.229V110.176H576.689V109.672H583.437V112.36C583.68 111.408 584.147 110.68 584.837 110.176C585.528 109.653 586.312 109.392 587.189 109.392C588.067 109.392 588.776 109.644 589.317 110.148C589.877 110.633 590.157 111.333 590.157 112.248C590.157 113.144 589.952 113.835 589.541 114.32C589.131 114.805 588.496 115.048 587.637 115.048C586.797 115.048 586.172 114.768 585.761 114.208C585.369 113.648 585.323 112.873 585.621 111.884H586.629C587.096 110.932 586.9 110.456 586.041 110.456ZM597.98 123.28C595.572 123.28 593.761 122.664 592.548 121.432C591.353 120.181 590.756 118.455 590.756 116.252C590.756 114.031 591.428 112.332 592.772 111.156C594.135 109.98 595.861 109.392 597.952 109.392C602.189 109.392 604.224 111.52 604.056 115.776H596.16V116.868C596.16 118.697 596.393 120.079 596.86 121.012C597.327 121.945 598.139 122.412 599.296 122.412C601.461 122.412 602.88 121.255 603.552 118.94L604.056 119.024C603.701 120.368 603.057 121.413 602.124 122.16C601.209 122.907 599.828 123.28 597.98 123.28ZM596.188 115.216H599.072V113.844C599.072 112.332 598.979 111.305 598.792 110.764C598.624 110.204 598.269 109.924 597.728 109.924C597.205 109.924 596.813 110.223 596.552 110.82C596.309 111.399 596.188 112.407 596.188 113.844V115.216ZM605.624 123.28V118.268H605.96C606.445 119.892 607.099 121.031 607.92 121.684C608.741 122.337 609.768 122.664 611 122.664C612.904 122.664 613.856 122.057 613.856 120.844C613.856 120.321 613.623 119.929 613.156 119.668C612.428 119.257 611.495 118.94 610.356 118.716C609.087 118.38 608.023 117.932 607.164 117.372C606.137 116.7 605.624 115.636 605.624 114.18C605.624 112.724 606.072 111.567 606.968 110.708C607.864 109.831 609.059 109.392 610.552 109.392C611.467 109.392 612.409 109.607 613.38 110.036C613.735 110.185 614.005 110.26 614.192 110.26C614.379 110.26 614.537 110.195 614.668 110.064C614.799 109.933 614.957 109.691 615.144 109.336H615.452V113.62H615.116C614.164 111.193 612.689 109.98 610.692 109.98C609.815 109.98 609.161 110.139 608.732 110.456C608.303 110.755 608.088 111.137 608.088 111.604C608.088 111.884 608.153 112.108 608.284 112.276C608.415 112.425 608.517 112.537 608.592 112.612C608.667 112.687 608.788 112.771 608.956 112.864C609.124 112.939 609.264 113.004 609.376 113.06C609.488 113.097 609.656 113.153 609.88 113.228C610.123 113.303 610.3 113.349 610.412 113.368C611.681 113.685 612.596 113.965 613.156 114.208C613.716 114.432 614.248 114.712 614.752 115.048C615.779 115.757 616.292 116.905 616.292 118.492C616.292 120.06 615.825 121.255 614.892 122.076C613.959 122.879 612.68 123.28 611.056 123.28C609.899 123.28 608.779 123.009 607.696 122.468C607.472 122.319 607.295 122.244 607.164 122.244C606.753 122.244 606.352 122.589 605.96 123.28H605.624ZM624.041 116.42H624.853V114.264C624.853 112.491 624.75 111.305 624.545 110.708C624.358 110.092 623.985 109.784 623.425 109.784C623.089 109.784 622.781 109.877 622.501 110.064C622.239 110.232 622.109 110.475 622.109 110.792C622.109 111.091 622.165 111.399 622.277 111.716H622.977C623.126 112.108 623.201 112.584 623.201 113.144C623.201 113.685 622.967 114.161 622.501 114.572C622.034 114.964 621.446 115.16 620.737 115.16C619.131 115.16 618.329 114.385 618.329 112.836C618.329 110.54 620.279 109.392 624.181 109.392C626.402 109.392 627.933 109.775 628.773 110.54C629.631 111.287 630.061 112.668 630.061 114.684V120.368C630.061 121.339 630.331 121.824 630.873 121.824C631.507 121.824 631.881 120.863 631.993 118.94L632.413 118.968C632.338 120.611 632.03 121.74 631.489 122.356C630.947 122.972 630.061 123.28 628.829 123.28C626.589 123.28 625.301 122.589 624.965 121.208C624.722 121.917 624.358 122.44 623.873 122.776C623.387 123.112 622.678 123.28 621.745 123.28C618.982 123.28 617.601 122.151 617.601 119.892C617.601 118.567 618.123 117.661 619.169 117.176C620.233 116.672 621.857 116.42 624.041 116.42ZM622.921 119.864C622.921 120.835 622.967 121.46 623.061 121.74C623.173 122.02 623.369 122.16 623.649 122.16C623.947 122.16 624.218 121.927 624.461 121.46C624.722 120.975 624.853 120.312 624.853 119.472V116.868H624.657C623.499 116.868 622.921 117.717 622.921 119.416V119.864Z" fill="white"/>
</g>
<defs>
<clipPath id="clip0">
<rect width="642" height="142" fill="white" transform="translate(0.648438)"/>
</clipPath>
</defs>
</svg>
