<svg width="302" height="142" viewBox="0 0 302 142" fill="none" xmlns="http://www.w3.org/2000/svg">
<g clip-path="url(#clip0)">
<path d="M29.7469 22.832C24.7869 22.832 22.3069 27.616 22.3069 37.184V40.976C22.3069 45.52 22.9629 49.088 24.2749 51.68C25.5869 54.24 27.5229 55.52 30.0829 55.52C33.6029 55.52 36.8349 52.096 39.7789 45.248H40.6429L40.3069 55.952H39.7789C39.5869 55.6 39.4109 55.36 39.2509 55.232C39.0909 55.072 38.8509 54.992 38.5309 54.992C38.2429 54.992 37.0909 55.248 35.0749 55.76C33.0589 56.24 31.0109 56.48 28.9309 56.48C23.7149 56.48 19.6669 55.072 16.7869 52.256C13.9389 49.44 12.5149 45.216 12.5149 39.584C12.5149 33.92 14.0029 29.552 16.9789 26.48C19.9869 23.408 24.0189 21.872 29.0749 21.872C31.0269 21.872 32.9309 22.128 34.7869 22.64C36.6749 23.12 37.7789 23.36 38.0989 23.36C38.4189 23.36 38.6589 23.296 38.8189 23.168C38.9789 23.008 39.1549 22.752 39.3469 22.4H39.8749L40.2589 32.816H39.3949C37.9549 29.584 36.4669 27.12 34.9309 25.424C33.4269 23.696 31.6989 22.832 29.7469 22.832ZM59.4028 46.544V42.464C59.4028 39.36 59.2268 37.104 58.8748 35.696C58.5548 34.256 57.7868 33.536 56.5708 33.536C55.8668 33.536 55.2908 33.744 54.8428 34.16C54.4268 34.544 54.1228 35.2 53.9308 36.128C53.6428 37.568 53.4988 39.76 53.4988 42.704V46.448C53.4988 49.936 53.5948 52.032 53.7868 52.736C54.0108 53.44 54.2348 54.016 54.4588 54.464C54.8108 55.232 55.4988 55.616 56.5228 55.616C57.7708 55.616 58.5868 54.896 58.9708 53.456C59.2588 52.432 59.4028 50.128 59.4028 46.544ZM56.4268 56.48C52.4268 56.48 49.4028 55.456 47.3548 53.408C45.3068 51.36 44.2828 48.432 44.2828 44.624C44.2828 40.784 45.3708 37.84 47.5468 35.792C49.7548 33.712 52.8428 32.672 56.8108 32.672C60.7788 32.672 63.7388 33.632 65.6908 35.552C67.6428 37.44 68.6188 40.336 68.6188 44.24C68.6188 52.4 64.5548 56.48 56.4268 56.48ZM70.2573 33.152H81.8253V37.568C82.3373 36.096 83.1213 34.912 84.1773 34.016C85.2333 33.12 86.8333 32.672 88.9773 32.672C93.9373 32.672 96.4173 35.344 96.4173 40.688V55.136H99.1053V56H85.5213V55.136H87.4893V39.536C87.4893 37.616 87.3613 36.384 87.1053 35.84C86.8493 35.264 86.3853 34.976 85.7133 34.976C84.6893 34.976 83.7773 35.648 82.9773 36.992C82.2093 38.336 81.8253 39.968 81.8253 41.888V55.136H83.8893V56H70.2573V55.136H72.8973V34.016H70.2573V33.152ZM102.105 49.136V34.016H99.465V33.152H102.105V26.96L111.033 24.752V33.152H117.273V34.016H111.033V50.192C111.033 51.696 111.177 52.8 111.465 53.504C111.785 54.208 112.425 54.56 113.385 54.56C114.345 54.56 115.177 54.08 115.881 53.12C116.617 52.16 117.097 50.848 117.321 49.184L118.137 49.28C117.881 51.488 117.177 53.248 116.025 54.56C114.873 55.84 112.969 56.48 110.313 56.48C107.657 56.48 105.625 55.952 104.217 54.896C102.809 53.84 102.105 51.92 102.105 49.136ZM130.316 44.72H131.708V41.024C131.708 37.984 131.532 35.952 131.18 34.928C130.86 33.872 130.22 33.344 129.26 33.344C128.684 33.344 128.156 33.504 127.676 33.824C127.228 34.112 127.004 34.528 127.004 35.072C127.004 35.584 127.1 36.112 127.292 36.656H128.492C128.748 37.328 128.876 38.144 128.876 39.104C128.876 40.032 128.476 40.848 127.676 41.552C126.876 42.224 125.868 42.56 124.652 42.56C121.9 42.56 120.524 41.232 120.524 38.576C120.524 34.64 123.868 32.672 130.556 32.672C134.364 32.672 136.988 33.328 138.428 34.64C139.9 35.92 140.636 38.288 140.636 41.744V51.488C140.636 53.152 141.1 53.984 142.028 53.984C143.116 53.984 143.756 52.336 143.948 49.04L144.668 49.088C144.54 51.904 144.012 53.84 143.084 54.896C142.156 55.952 140.636 56.48 138.524 56.48C134.684 56.48 132.476 55.296 131.9 52.928C131.484 54.144 130.86 55.04 130.028 55.616C129.196 56.192 127.98 56.48 126.38 56.48C121.644 56.48 119.276 54.544 119.276 50.672C119.276 48.4 120.172 46.848 121.964 46.016C123.788 45.152 126.572 44.72 130.316 44.72ZM128.396 50.624C128.396 52.288 128.476 53.36 128.636 53.84C128.828 54.32 129.164 54.56 129.644 54.56C130.156 54.56 130.62 54.16 131.036 53.36C131.484 52.528 131.708 51.392 131.708 49.952V45.488H131.372C129.388 45.488 128.396 46.944 128.396 49.856V50.624ZM127.34 29.744L130.364 20.576L132.62 20.096C133.612 19.872 134.364 20 134.876 20.48C135.42 20.928 135.692 21.552 135.692 22.352C135.692 23.12 135.228 23.92 134.3 24.752L127.868 30.08L127.34 29.744ZM158.779 33.536C157.371 33.536 156.363 34.304 155.755 35.84C155.147 37.376 154.843 39.92 154.843 43.472V45.968C154.843 49.136 155.195 51.408 155.899 52.784C156.603 54.16 157.899 54.848 159.787 54.848C161.675 54.848 163.179 54.208 164.299 52.928C165.419 51.648 166.139 50.192 166.459 48.56L167.323 48.656C166.715 51.408 165.595 53.392 163.963 54.608C162.299 55.856 160.011 56.48 157.099 56.48C153.387 56.48 150.539 55.488 148.555 53.504C146.571 51.488 145.579 48.56 145.579 44.72C145.579 40.848 146.699 37.872 148.939 35.792C151.211 33.712 154.363 32.672 158.395 32.672C161.243 32.672 163.419 33.232 164.923 34.352C166.427 35.44 167.179 36.816 167.179 38.48C167.179 40.144 166.811 41.36 166.075 42.128C165.371 42.896 164.379 43.28 163.099 43.28C161.851 43.28 160.843 42.944 160.075 42.272C159.307 41.6 158.923 40.608 158.923 39.296C158.923 38.72 159.003 38.144 159.163 37.568H160.747C160.971 36.928 161.083 36.352 161.083 35.84C161.083 34.304 160.315 33.536 158.779 33.536ZM171.142 49.136V34.016H168.502V33.152H171.142V26.96L180.07 24.752V33.152H186.31V34.016H180.07V50.192C180.07 51.696 180.214 52.8 180.502 53.504C180.822 54.208 181.462 54.56 182.422 54.56C183.382 54.56 184.214 54.08 184.918 53.12C185.654 52.16 186.134 50.848 186.358 49.184L187.174 49.28C186.918 51.488 186.214 53.248 185.062 54.56C183.91 55.84 182.006 56.48 179.35 56.48C176.694 56.48 174.662 55.952 173.254 54.896C171.846 53.84 171.142 51.92 171.142 49.136ZM199.353 44.72H200.745V41.024C200.745 37.984 200.569 35.952 200.217 34.928C199.897 33.872 199.257 33.344 198.297 33.344C197.721 33.344 197.193 33.504 196.713 33.824C196.265 34.112 196.041 34.528 196.041 35.072C196.041 35.584 196.137 36.112 196.329 36.656H197.529C197.785 37.328 197.913 38.144 197.913 39.104C197.913 40.032 197.513 40.848 196.713 41.552C195.913 42.224 194.905 42.56 193.689 42.56C190.937 42.56 189.561 41.232 189.561 38.576C189.561 34.64 192.905 32.672 199.593 32.672C203.401 32.672 206.025 33.328 207.465 34.64C208.937 35.92 209.673 38.288 209.673 41.744V51.488C209.673 53.152 210.137 53.984 211.065 53.984C212.153 53.984 212.793 52.336 212.985 49.04L213.705 49.088C213.577 51.904 213.049 53.84 212.121 54.896C211.193 55.952 209.673 56.48 207.561 56.48C203.721 56.48 201.513 55.296 200.937 52.928C200.521 54.144 199.897 55.04 199.065 55.616C198.233 56.192 197.017 56.48 195.417 56.48C190.681 56.48 188.313 54.544 188.313 50.672C188.313 48.4 189.209 46.848 191.001 46.016C192.825 45.152 195.609 44.72 199.353 44.72ZM197.433 50.624C197.433 52.288 197.513 53.36 197.673 53.84C197.865 54.32 198.201 54.56 198.681 54.56C199.193 54.56 199.657 54.16 200.073 53.36C200.521 52.528 200.745 51.392 200.745 49.952V45.488H200.409C198.425 45.488 197.433 46.944 197.433 49.856V50.624ZM214.473 33.152H226.041V37.568C226.553 36.096 227.337 34.912 228.393 34.016C229.449 33.12 231.049 32.672 233.193 32.672C238.153 32.672 240.633 35.344 240.633 40.688V55.136H243.321V56H229.737V55.136H231.705V39.536C231.705 37.616 231.577 36.384 231.321 35.84C231.065 35.264 230.601 34.976 229.929 34.976C228.905 34.976 227.993 35.648 227.193 36.992C226.425 38.336 226.041 39.968 226.041 41.888V55.136H228.105V56H214.473V55.136H217.113V34.016H214.473V33.152ZM259.659 46.544V42.464C259.659 39.36 259.483 37.104 259.131 35.696C258.811 34.256 258.043 33.536 256.827 33.536C256.123 33.536 255.547 33.744 255.099 34.16C254.683 34.544 254.379 35.2 254.187 36.128C253.899 37.568 253.755 39.76 253.755 42.704V46.448C253.755 49.936 253.851 52.032 254.043 52.736C254.267 53.44 254.491 54.016 254.715 54.464C255.067 55.232 255.755 55.616 256.779 55.616C258.027 55.616 258.843 54.896 259.227 53.456C259.515 52.432 259.659 50.128 259.659 46.544ZM256.683 56.48C252.683 56.48 249.659 55.456 247.611 53.408C245.563 51.36 244.539 48.432 244.539 44.624C244.539 40.784 245.627 37.84 247.803 35.792C250.011 33.712 253.099 32.672 257.067 32.672C261.035 32.672 263.995 33.632 265.947 35.552C267.899 37.44 268.875 40.336 268.875 44.24C268.875 52.4 264.811 56.48 256.683 56.48ZM271.521 56.48V47.888H272.098C272.93 50.672 274.05 52.624 275.458 53.744C276.866 54.864 278.626 55.424 280.738 55.424C284.002 55.424 285.634 54.384 285.634 52.304C285.634 51.408 285.234 50.736 284.434 50.288C283.186 49.584 281.586 49.04 279.634 48.656C277.458 48.08 275.634 47.312 274.162 46.352C272.402 45.2 271.521 43.376 271.521 40.88C271.521 38.384 272.289 36.4 273.826 34.928C275.362 33.424 277.41 32.672 279.97 32.672C281.538 32.672 283.154 33.04 284.818 33.776C285.426 34.032 285.89 34.16 286.21 34.16C286.53 34.16 286.802 34.048 287.026 33.824C287.25 33.6 287.522 33.184 287.842 32.576H288.37V39.92H287.794C286.162 35.76 283.634 33.68 280.21 33.68C278.706 33.68 277.586 33.952 276.85 34.496C276.114 35.008 275.746 35.664 275.746 36.464C275.746 36.944 275.858 37.328 276.082 37.616C276.306 37.872 276.482 38.064 276.61 38.192C276.738 38.32 276.946 38.464 277.234 38.624C277.522 38.752 277.762 38.864 277.954 38.96C278.146 39.024 278.434 39.12 278.818 39.248C279.234 39.376 279.538 39.456 279.73 39.488C281.906 40.032 283.474 40.512 284.434 40.928C285.394 41.312 286.306 41.792 287.17 42.368C288.93 43.584 289.81 45.552 289.81 48.272C289.81 50.96 289.01 53.008 287.41 54.416C285.81 55.792 283.618 56.48 280.834 56.48C278.85 56.48 276.93 56.016 275.074 55.088C274.69 54.832 274.386 54.704 274.162 54.704C273.458 54.704 272.77 55.296 272.098 56.48H271.521Z" fill="white"/>
<path d="M42.0924 103.4H49.5684V103.932H48.0284V122.468H49.5684V123H41.0284V122.468H42.5684V104.968H42.4564L38.2564 123H34.7564L29.8284 104.884H29.7164V122.468H31.2564V123H27.4484V122.468H28.9884V103.932H27.4484V103.4H35.0084L38.7324 117.82L42.0924 103.4ZM62.5601 122.468L60.5161 116.42H54.9721L52.8161 122.468H54.9161V123H50.6321V122.468H51.9481L59.0881 103.232H61.3841L68.4401 122.468H69.7281V123H60.5721V122.468H62.5601ZM57.8561 108.468L55.2241 115.804H60.2921L57.8561 108.468ZM90.0975 112.864C90.0975 116.709 89.0148 119.388 86.8495 120.9C84.8521 122.3 82.1081 123 78.6175 123H70.6935V122.468H72.5415V103.932H70.6935V103.4H79.3455C82.9295 103.4 85.6175 104.137 87.4095 105.612C89.2015 107.068 90.0975 109.485 90.0975 112.864ZM78.0015 122.468H79.0655C80.9508 122.468 82.2948 121.805 83.0975 120.48C83.9188 119.136 84.3295 116.896 84.3295 113.76V112.136C84.3295 107.936 83.5268 105.407 81.9215 104.548C81.1561 104.137 80.0735 103.932 78.6735 103.932H78.0015V122.468ZM101.706 122.468L99.6622 116.42H94.1182L91.9622 122.468H94.0622V123H89.7782V122.468H91.0942L98.2342 103.232H100.53L107.586 122.468H108.874V123H99.7182V122.468H101.706ZM97.0022 108.468L94.3702 115.804H99.4382L97.0022 108.468ZM123.583 122.692C124.516 122.692 125.337 122.44 126.047 121.936C126.775 121.432 127.139 120.676 127.139 119.668C127.139 118.641 126.747 117.857 125.963 117.316C125.197 116.775 124.096 116.308 122.659 115.916C121.24 115.505 120.204 115.151 119.551 114.852C118.916 114.553 118.309 114.161 117.731 113.676C116.573 112.705 115.995 111.203 115.995 109.168C115.995 107.507 116.583 106.079 117.759 104.884C118.953 103.689 120.577 103.092 122.631 103.092C123.62 103.092 124.647 103.241 125.711 103.54C126.793 103.82 127.465 103.96 127.727 103.96C127.988 103.96 128.221 103.773 128.427 103.4H128.735L128.931 109.056H128.483C127.587 107.432 126.644 106.135 125.655 105.164C124.684 104.175 123.62 103.68 122.463 103.68C121.324 103.68 120.437 103.951 119.803 104.492C119.168 105.015 118.851 105.724 118.851 106.62C118.851 107.497 119.224 108.179 119.971 108.664C120.736 109.131 121.669 109.513 122.771 109.812C123.872 110.111 124.591 110.316 124.927 110.428C125.281 110.54 125.711 110.699 126.215 110.904C126.737 111.091 127.157 111.296 127.475 111.52C127.811 111.725 128.156 111.996 128.511 112.332C128.884 112.649 129.173 113.004 129.379 113.396C129.883 114.292 130.135 115.356 130.135 116.588C130.135 118.604 129.5 120.228 128.231 121.46C126.98 122.673 125.328 123.28 123.275 123.28C122.211 123.28 120.988 123.14 119.607 122.86C118.244 122.58 117.488 122.44 117.339 122.44C117.077 122.44 116.825 122.72 116.583 123.28H116.191L115.911 116.616H116.387C117.208 118.24 118.253 119.659 119.523 120.872C120.811 122.085 122.164 122.692 123.583 122.692ZM145.226 114.348V112.276C145.226 108.86 145.058 106.704 144.722 105.808C144.349 104.781 143.817 104.147 143.126 103.904C142.734 103.755 142.258 103.68 141.698 103.68C141.138 103.68 140.653 103.755 140.242 103.904C139.85 104.053 139.524 104.315 139.262 104.688C139.001 105.061 138.786 105.453 138.618 105.864C138.469 106.275 138.348 106.853 138.254 107.6C138.142 108.683 138.086 110.279 138.086 112.388V114.404C138.086 116.681 138.17 118.305 138.338 119.276C138.525 120.228 138.749 120.909 139.01 121.32C139.589 122.235 140.485 122.692 141.698 122.692C143.173 122.692 144.125 122.076 144.554 120.844C145.002 119.593 145.226 117.428 145.226 114.348ZM141.642 123.28C138.525 123.28 136.192 122.44 134.642 120.76C133.112 119.061 132.346 116.616 132.346 113.424C132.346 110.213 133.168 107.693 134.81 105.864C136.472 104.016 138.814 103.092 141.838 103.092C144.862 103.092 147.14 103.969 148.67 105.724C150.22 107.46 150.994 109.933 150.994 113.144C150.994 116.355 150.21 118.847 148.642 120.62C147.093 122.393 144.76 123.28 141.642 123.28ZM152.932 103.4H163.012V104.016H160.044V122.384H161.052C162.638 122.384 163.898 121.899 164.832 120.928C165.784 119.957 166.745 118.464 167.716 116.448H168.304L167.772 123H152.932V122.384H154.584V104.016H152.932V103.4ZM176.265 117.036C176.265 118.753 176.554 120.069 177.133 120.984C177.73 121.899 178.794 122.356 180.325 122.356C181.855 122.356 183.031 121.88 183.853 120.928C184.674 119.976 185.085 118.529 185.085 116.588V103.932H183.265V103.4H187.353V103.932H185.813V116.392C185.813 118.707 185.299 120.433 184.273 121.572C183.246 122.711 181.426 123.28 178.813 123.28C176.218 123.28 174.23 122.739 172.849 121.656C171.486 120.573 170.805 118.716 170.805 116.084V103.932H169.265V103.4H178.085V103.932H176.265V117.036ZM205.798 103.4L206.078 110.428H205.546C204.725 107.945 203.997 106.256 203.362 105.36C202.727 104.445 201.813 103.988 200.618 103.988H200.282V122.412H202.662V123H192.442V122.412H194.822V103.988H194.458C193.263 103.988 192.339 104.464 191.686 105.416C191.033 106.349 190.314 108.02 189.53 110.428H188.998L189.278 103.4H205.798ZM208.003 103.4H216.543V103.932H215.003V122.468H216.543V123H208.003V122.468H209.543V103.932H208.003V103.4ZM231.484 114.348V112.276C231.484 108.86 231.316 106.704 230.98 105.808C230.607 104.781 230.075 104.147 229.384 103.904C228.992 103.755 228.516 103.68 227.956 103.68C227.396 103.68 226.911 103.755 226.5 103.904C226.108 104.053 225.782 104.315 225.52 104.688C225.259 105.061 225.044 105.453 224.876 105.864C224.727 106.275 224.606 106.853 224.512 107.6C224.4 108.683 224.344 110.279 224.344 112.388V114.404C224.344 116.681 224.428 118.305 224.596 119.276C224.783 120.228 225.007 120.909 225.268 121.32C225.847 122.235 226.743 122.692 227.956 122.692C229.431 122.692 230.383 122.076 230.812 120.844C231.26 119.593 231.484 117.428 231.484 114.348ZM227.9 123.28C224.783 123.28 222.45 122.44 220.9 120.76C219.37 119.061 218.604 116.616 218.604 113.424C218.604 110.213 219.426 107.693 221.068 105.864C222.73 104.016 225.072 103.092 228.096 103.092C231.12 103.092 233.398 103.969 234.928 105.724C236.478 107.46 237.252 109.933 237.252 113.144C237.252 116.355 236.468 118.847 234.9 120.62C233.351 122.393 231.018 123.28 227.9 123.28ZM255.122 103.932V123H251.202L241.598 104.884V122.468H243.138V123H239.302V122.468H240.842V103.932H239.302V103.4H247.03L254.366 117.456V103.932H252.826V103.4H256.662V103.932H255.122ZM266.659 122.692C267.593 122.692 268.414 122.44 269.123 121.936C269.851 121.432 270.215 120.676 270.215 119.668C270.215 118.641 269.823 117.857 269.039 117.316C268.274 116.775 267.173 116.308 265.735 115.916C264.317 115.505 263.281 115.151 262.627 114.852C261.993 114.553 261.386 114.161 260.807 113.676C259.65 112.705 259.071 111.203 259.071 109.168C259.071 107.507 259.659 106.079 260.835 104.884C262.03 103.689 263.654 103.092 265.707 103.092C266.697 103.092 267.723 103.241 268.787 103.54C269.87 103.82 270.542 103.96 270.803 103.96C271.065 103.96 271.298 103.773 271.503 103.4H271.811L272.007 109.056H271.559C270.663 107.432 269.721 106.135 268.731 105.164C267.761 104.175 266.697 103.68 265.539 103.68C264.401 103.68 263.514 103.951 262.879 104.492C262.245 105.015 261.927 105.724 261.927 106.62C261.927 107.497 262.301 108.179 263.047 108.664C263.813 109.131 264.746 109.513 265.847 109.812C266.949 110.111 267.667 110.316 268.003 110.428C268.358 110.54 268.787 110.699 269.291 110.904C269.814 111.091 270.234 111.296 270.551 111.52C270.887 111.725 271.233 111.996 271.587 112.332C271.961 112.649 272.25 113.004 272.455 113.396C272.959 114.292 273.211 115.356 273.211 116.588C273.211 118.604 272.577 120.228 271.307 121.46C270.057 122.673 268.405 123.28 266.351 123.28C265.287 123.28 264.065 123.14 262.683 122.86C261.321 122.58 260.565 122.44 260.415 122.44C260.154 122.44 259.902 122.72 259.659 123.28H259.267L258.987 116.616H259.463C260.285 118.24 261.33 119.659 262.599 120.872C263.887 122.085 265.241 122.692 266.659 122.692Z" fill="white"/>
</g>
<defs>
<clipPath id="clip0">
<rect width="301" height="142" fill="white" transform="translate(0.148438)"/>
</clipPath>
</defs>
</svg>
